<?xml version="1.0" encoding="utf-8"?>
<!-- Generator: Adobe Illustrator 15.1.0, SVG Export Plug-In . SVG Version: 6.00 Build 0)  -->
<!DOCTYPE svg PUBLIC "-//W3C//DTD SVG 1.1//EN" "http://www.w3.org/Graphics/SVG/1.1/DTD/svg11.dtd">
<svg version="1.1" id="Warstwa_1" xmlns="http://www.w3.org/2000/svg" xmlns:xlink="http://www.w3.org/1999/xlink" x="0px" y="0px"
	 width="612px" height="665.947px" viewBox="0 0 612 665.947" enable-background="new 0 0 612 665.947" xml:space="preserve">
<g id="logo-text">
	<path fill="#FFFFFF" d="M114.696,627.179c-8.726-5.885-106.557-67.383-106.557-67.383c-2.841-2.235-4.06-5.479,0-10.758
		c13.396-17.659,33.693-28.416,56.831-28.416c23.139,0,45.263,11.771,58.659,31.054c1.826,2.844,1.826,6.495-0.813,8.12
		c-2.638,1.827-6.292,1.014-8.119-1.625c-11.568-16.236-30.242-25.776-49.727-25.776c-18.672,0-35.519,7.104-47.089,21.312
		l107.574,67.588c1.827,0.812,2.638,4.263,0.812,7.104c-12.381,22.123-35.52,35.519-61.297,35.519
		c-24.762,0-47.9-12.583-61.296-34.1c-1.827-2.641,0-5.888,1.827-7.71c2.639-0.812,6.292,0,7.917,1.822
		c10.756,18.677,30.242,29.229,51.553,29.229C84.454,653.159,103.127,643.417,114.696,627.179L114.696,627.179z M302.244,593.081
		c0,40.188-32.679,72.866-73.88,72.866c-39.985,0-72.664-32.682-72.664-72.866c0-39.985,32.679-72.866,72.664-72.866
		C269.565,520.215,302.244,553.096,302.244,593.081L302.244,593.081z M291.486,593.081c0-33.69-28.416-61.903-63.122-61.903
		c-33.49,0-61.904,28.213-61.904,61.903c0,34.708,28.415,61.905,61.904,61.905C263.071,654.986,291.486,627.789,291.486,593.081
		L291.486,593.081z M453.461,521.638c2.639,0,5.074,2.438,5.074,5.479v65.761c0,38.769-27.197,70.633-60.894,70.633
		c-33.284,0-60.687-31.864-60.687-70.633l-0.812-65.152c0-3.649,2.438-5.275,6.092-5.275c2.638,0,5.479,1.626,5.479,5.275v65.152
		c0,32.679,22.732,60.281,49.93,60.281c27.604,0,49.729-27.604,49.729-60.281v-65.761
		C447.372,524.073,449.807,521.638,453.461,521.638L453.461,521.638z M613.202,577.249c0,30.649-28.82,56.222-64.745,56.222
		l-43.841-1.013v26.182c0,2.642-2.438,5.276-5.074,5.276c-3.654,0-5.276-2.638-5.276-5.276l-0.201-32.271V527.32
		c0-2.641,1.823-5.275,5.479-5.275h48.915C584.382,522.043,613.202,546.602,613.202,577.249z M602.04,577.249
		c0-24.559-23.748-44.854-53.583-44.854h-43.841v89.511h43.841C578.292,621.902,602.04,601.809,602.04,577.249z"/>
</g>
<g id="logo-symbol_1_">
	<path fill="#E9B776" d="M219.16,97.799c3.275,4.287,9.404,5.106,13.689,1.833c23.989-18.329,52.662-28.017,82.917-28.017
		c75.393,0,136.728,61.334,136.728,136.725c0,75.39-61.334,136.724-136.728,136.724c-75.388,0-136.723-61.332-136.723-136.724
		c0-30.256,9.687-58.929,28.017-82.919c3.275-4.283,2.455-10.414-1.832-13.688c-4.285-3.275-10.414-2.455-13.689,1.832
		c-20.953,27.424-32.027,60.197-32.027,94.775c0,86.159,70.096,156.255,156.251,156.255c86.16,0,156.258-70.097,156.258-156.255
		c0-86.159-70.099-156.256-156.258-156.256c-34.578,0-67.35,11.074-94.771,32.026C216.708,87.385,215.885,93.513,219.16,97.799
		L219.16,97.799z M315.766,0c-114.875,0-208.34,93.46-208.34,208.34s93.461,208.341,208.34,208.341
		c114.881,0,208.345-93.459,208.345-208.341C524.109,93.46,430.646,0,315.766,0z M315.766,397.147
		c-104.105,0-188.808-84.698-188.808-188.811c0-104.109,84.699-188.809,188.808-188.809c104.109,0,188.812,84.7,188.812,188.809
		C504.575,312.449,419.875,397.147,315.766,397.147z"/>
</g>
</svg>
