<?xml version="1.0" encoding="utf-8"?>
<!-- Generator: Adobe Illustrator 15.1.0, SVG Export Plug-In . SVG Version: 6.00 Build 0)  -->
<!DOCTYPE svg PUBLIC "-//W3C//DTD SVG 1.1//EN" "http://www.w3.org/Graphics/SVG/1.1/DTD/svg11.dtd">
<svg version="1.1" id="Warstwa_1" xmlns="http://www.w3.org/2000/svg" xmlns:xlink="http://www.w3.org/1999/xlink" x="0px" y="0px"
	 width="177.857px" height="53.332px" viewBox="0 0 177.857 53.332" enable-background="new 0 0 177.857 53.332"
	 xml:space="preserve">
<g>
	<g>
		<path fill="#005589" d="M37.475,2.905c8.747,3.162,20.57,3.318,28.105-2.818c0.293-0.239-0.113-0.396-0.326-0.364
			C54.86,1.299,46.902,10.385,39.907,17.469C29.35,28.16,19.467,40.063,7.36,49.058c-1.436,1.066-6.873,5.725-6.863,1.467
			c0.005-2.354,1.406-4.925,2.396-6.955c2.015-4.134,4.428-8.104,7.089-11.847c5.232-7.355,14.23-15.878,24.063-13.738
			c2.1,0.457,4.414,1.448,6.613,1.173c2.281-0.286,3.02-1.62,1.748,0.827c-0.199,0.383,0.478,0.283,0.645,0.225
			c2.318-0.825,2.938-0.577,4.692,0.982c0.206,0.184,0.664,0.087,0.837-0.104c5.516-6.108,9.623-13.315,13.729-20.405
			c0.235-0.406-0.738-0.314-0.902-0.031c-3.861,6.657-7.699,13.631-10.312,20.893c-1.098,3.051,0.547,3.982,3.314,4.301
			c4.53,0.521,9.699-0.026,14.05-1.316c1.743-0.517,3.2-1.436,4.411-2.771c0.493-0.544,0.679-1.152,0.942-1.815
			c0.84-2.114,3.397-3.196,5.331-4.113c1.968-0.934,4.143-1.551,6.016-2.675c2.146-1.288,4.488-3.19,7.177-2.801
			c1.955,0.283,4.069,1.687,5.804,2.554c8.129,4.061,16.551,7.369,25.197,10.147c17.638,5.666,36.011,8.735,54.225,11.883
			c0.318,0.055,1.142-0.443,0.588-0.539c-23.535-4.067-47.159-8.247-69.349-17.403c-5.064-2.09-9.821-4.912-14.915-6.899
			c-1.625-0.633-3.053-0.428-4.631,0.132c-3.582,1.27-6.982,3.629-10.5,5.185c-2.332,1.031-4.754,2.272-6.017,4.574
			c-0.229,0.418,0.74,0.309,0.902,0.031c0.357-0.613,0.31-0.405,0.366-1.073c0.034-0.412-0.904-0.211-0.968,0.115
			c-1.18,6.041-9.062,5.984-13.961,6.277c-2.012,0.12-7.457,0.698-7.374-2.405c0.07-2.626,2.054-5.599,3.091-7.853
			c1.511-3.284,3.157-6.504,4.86-9.692c0.289-0.527,0.578-1.055,0.868-1.582c1.251-0.997,1.311-1.643,0.18-1.938
			c-0.752,1.299-1.513,2.593-2.276,3.886c-1.631,2.76-3.343,5.467-5.133,8.127c-1.258,1.87-4.3,7.622-6.656,4.932
			c-0.114-0.131-0.371-0.102-0.515-0.061c-2.286,0.655-3.024,1.449-1.481-1.066c0.25-0.408-0.604-0.259-0.753-0.168
			c-4.219,2.564-7.864-0.399-11.966-0.556c-2.549-0.097-4.796,0.571-7.176,1.451c-6.066,2.243-10.872,7.137-14.785,12.103
			C7.593,33.52-4.546,49.827,0.808,53.571c0.185,0.129,0.516,0.008,0.685-0.087c15.306-8.641,25.91-23.107,38.42-35.065
			c6.19-5.917,11.819-12.387,19.556-16.382c1.703-0.879,6.24-1.983,1.456,0.299c-2.313,1.104-4.943,1.533-7.457,1.852
			C48.402,4.83,43.031,4.159,38.24,2.427C37.938,2.318,37.063,2.756,37.475,2.905L37.475,2.905z"/>
	</g>
</g>
</svg>
