<?xml version="1.0" encoding="utf-8"?>
<!-- Generator: Adobe Illustrator 15.1.0, SVG Export Plug-In . SVG Version: 6.00 Build 0)  -->
<!DOCTYPE svg PUBLIC "-//W3C//DTD SVG 1.1//EN" "http://www.w3.org/Graphics/SVG/1.1/DTD/svg11.dtd">
<svg version="1.1" id="Capa_1" xmlns="http://www.w3.org/2000/svg" xmlns:xlink="http://www.w3.org/1999/xlink" x="0px" y="0px"
	 width="896.025px" height="896.025px" viewBox="0 0 896.025 896.025" enable-background="new 0 0 896.025 896.025"
	 xml:space="preserve">
<g>
	<path id="settings_1_" fill="#7D8A91" d="M863.24,382.771l-88.76-14.807c-6.45-26.374-15.856-51.585-28.106-75.099l56.821-70.452
		c12.085-14.889,11.534-36.312-1.205-50.682l-35.303-39.729c-12.796-14.355-34.016-17.391-50.2-7.165l-75.906,47.716
		c-33.386-23.326-71.204-40.551-112-50.546L513.73,32.772c-3.115-18.895-19.468-32.759-38.66-32.759h-53.198
		c-19.155,0-35.562,13.864-38.608,32.759l-14.931,89.263c-33.729,8.258-65.354,21.588-94.213,39.144l-72.188-51.518
		c-15.558-11.115-36.927-9.377-50.504,4.171l-37.583,37.61c-13.548,13.577-15.286,34.946-4.142,50.504l51.638,72.326
		c-17.391,28.642-30.584,60.086-38.841,93.515l-89.743,14.985C13.891,385.888,0,402.24,0,421.435v53.156
		c0,19.193,13.891,35.547,32.757,38.663l89.743,14.985c6.781,27.508,16.625,53.784,29.709,78.146L95.647,676.44
		c-12.044,14.875-11.538,36.312,1.203,50.669l35.274,39.729c12.797,14.382,34.028,17.363,50.216,7.163l77-48.37
		c32.581,22.285,69.44,38.664,108.993,48.37l14.931,89.25c3.05,18.896,19.453,32.76,38.608,32.76h53.198
		c19.192,0,35.545-13.861,38.661-32.759l14.875-89.25c33.308-8.146,64.529-21.245,93.134-38.5l75.194,53.705
		c15.53,11.155,36.915,9.405,50.479-4.186l37.598-37.599c13.532-13.536,15.365-34.893,4.127-50.479l-53.534-75.061
		c17.439-28.736,30.702-60.236,38.907-93.814l88.759-14.82c18.922-3.116,32.757-19.469,32.757-38.663V421.43
		C895.998,402.24,882.163,385.888,863.24,382.771z M449.42,616.013c-92.764,0-168-75.25-168-168c0-92.764,75.236-168,168-168
		c92.748,0,167.998,75.236,167.998,168C617.418,540.763,542.168,616.013,449.42,616.013z"/>
</g>
</svg>
