<?xml version="1.0" encoding="utf-8"?>
<!-- Generator: Adobe Illustrator 15.1.0, SVG Export Plug-In . SVG Version: 6.00 Build 0)  -->
<!DOCTYPE svg PUBLIC "-//W3C//DTD SVG 1.1//EN" "http://www.w3.org/Graphics/SVG/1.1/DTD/svg11.dtd">
<svg version="1.1" id="Capa_1" xmlns="http://www.w3.org/2000/svg" xmlns:xlink="http://www.w3.org/1999/xlink" x="0px" y="0px"
	 width="612px" height="611.975px" viewBox="0 0 612 611.975" enable-background="new 0 0 612 611.975" xml:space="preserve">
<g>
	<path fill="#7D8A91" d="M360.125,305.994L600.786,65.332c14.952-14.938,14.952-39.179,0-54.118
		c-14.952-14.952-39.166-14.952-54.118,0L306.007,251.875L65.332,11.215c-14.952-14.952-39.166-14.952-54.118,0
		c-14.952,14.939-14.952,39.179,0,54.118l240.674,240.662L11.214,546.655c-14.952,14.939-14.952,39.18,0,54.119
		c7.476,7.463,17.274,11.201,27.059,11.201s19.583-3.738,27.059-11.215l240.675-240.662l240.661,240.662
		c7.477,7.477,17.273,11.215,27.059,11.215c9.786,0,19.584-3.738,27.062-11.215c14.952-14.939,14.952-39.18,0-54.117
		L360.125,305.994z"/>
</g>
</svg>
